inDegrees=no
num_controls=7
num_derivatives=13
num_iterations=107
num_multipliers=7
num_parameters=0
num_slacks=7
num_states=26
objective=0.431098
objective_accelerations=0.051226
objective_balance=0.006821
objective_effort=0.031442
objective_height=0.340461
objective_ligament=0.001148
solver_duration=1496.093518
status=Solve_Succeeded
success=true
DataType=double
version=3
OpenSimVersion=4.5
endheader
time	/jointset/ground_pelvis/pelvis_tilt/value	/jointset/ground_pelvis/pelvis_tx/value	/jointset/ground_pelvis/pelvis_ty/value	/jointset/hip_l/hip_flexion_l/value	/jointset/hip_l/hip_adduction_l/value	/jointset/hip_l/hip_rotation_l/value	/jointset/back/lumbar_extension/value	/jointset/patellofemoral_l/patellar_flexion_l/value	/jointset/knee_l/knee_flexion_l/value	/jointset/knee_l/knee_adduction_l/value	/jointset/knee_l/knee_rotation_l/value	/jointset/ankle_l/ankle_angle_l/value	/jointset/subtalar_l/subtalar_angle_l/value	/jointset/ground_pelvis/pelvis_tilt/speed	/jointset/ground_pelvis/pelvis_tx/speed	/jointset/ground_pelvis/pelvis_ty/speed	/jointset/hip_l/hip_flexion_l/speed	/jointset/hip_l/hip_adduction_l/speed	/jointset/hip_l/hip_rotation_l/speed	/jointset/back/lumbar_extension/speed	/jointset/patellofemoral_l/patellar_flexion_l/speed	/jointset/knee_l/knee_flexion_l/speed	/jointset/knee_l/knee_adduction_l/speed	/jointset/knee_l/knee_rotation_l/speed	/jointset/ankle_l/ankle_angle_l/speed	/jointset/subtalar_l/subtalar_angle_l/speed	/forceset/tau_hip_flexion_l	/forceset/tau_hip_adduction_l	/forceset/tau_hip_rotation_l	/forceset/tau_knee_flexion_l	/forceset/tau_ankle_angle_l	/forceset/tau_subtalar_angle_l	/forceset/tau_lumbar_extension	lambda_cid13_p0	lambda_cid13_p1	lambda_cid13_p2	lambda_cid13_p3	lambda_cid13_p4	lambda_cid13_p5	lambda_cid14_p0	/jointset/ground_pelvis/pelvis_tilt/accel	/jointset/ground_pelvis/pelvis_tx/accel	/jointset/ground_pelvis/pelvis_ty/accel	/jointset/hip_l/hip_flexion_l/accel	/jointset/hip_l/hip_adduction_l/accel	/jointset/hip_l/hip_rotation_l/accel	/jointset/back/lumbar_extension/accel	/jointset/patellofemoral_l/patellar_flexion_l/accel	/jointset/knee_l/knee_flexion_l/accel	/jointset/knee_l/knee_adduction_l/accel	/jointset/knee_l/knee_rotation_l/accel	/jointset/ankle_l/ankle_angle_l/accel	/jointset/subtalar_l/subtalar_angle_l/accel	gamma_cid13_p0	gamma_cid13_p1	gamma_cid13_p2	gamma_cid13_p3	gamma_cid13_p4	gamma_cid13_p5	gamma_cid14_p0
1.5	-0.3358776681822004	-0.03090586004602637	0.7630353471606844	1.179305195495344	-0.3043709946447676	0.01647389498171034	-0.3377193666622796	0.8290396904845936	0.8290396904845942	-0.1735081942959026	0.1655639184648192	0.1683472087132218	-0.01791166643709892	0.4250472967034955	0.1560820919424001	0.5144877911890453	-2.116458245084385	-0.01666785896806941	-0.7016914427172131	0.5748927044941091	-2.123466883407123	-2.123466883407124	0.005789617139372938	-0.04797031188705816	-0.5559305433278589	-0.1110886428916891	-0.1914821445314808	0.01900450030269463	-0.02588411405359551	-0.2574884630339844	0.09792396766854435	0.03888358291671661	0.1903856456563869	-6.612369087104158	-18.34552356796615	5.510644823152578	-2.054342842059046	-605.2811801910469	-59.49607352787118	-19.7108168580515	0.5103001673775388	0.5381015753394318	-0.4388229204131132	-1.278186377224514	0.6740465840588797	-0.3641888421946429	1.561039565998435	-1.325823188857843	-1.325823188857844	0.05610474254685571	-0.07393537938893707	-0.5885818178788389	0.698572850262016	4.161137208023273e-07	3.516648610356411e-07	-2.689875909532173e-06	-3.058664537458568e-07	5.095241449124959e-07	2.273362063912303e-07	4.085352656065953e-07
1.51	-0.3316018249366207	-0.02931825939407123	0.768157254428539	1.158078777521819	-0.3045050545301883	0.009442038873599909	-0.3318936020135967	0.8077410162776336	0.8077410162776341	-0.1734516183432438	0.1650801861922107	0.1627589171885613	-0.01898904985820879	0.4300631365756749	0.1614202212914583	0.5097879159808999	-2.12853122159961	-0.01012282740016182	-0.7045842585454939	0.5901810929571927	-2.135963369381864	-2.135963369381865	0.005516252061159991	-0.04877682315310109	-0.5616281042559609	-0.1043685492724872	-0.1853529989712891	0.01852033506633799	-0.02574408208333074	-0.2545644126734095	0.09949408918769587	0.03875529045025528	0.1852519384009679	-5.881303184600335	-18.51139672651899	5.643986453500508	-2.290150175003099	-600.9672481940771	-59.75342174530999	-21.0112800092022	0.4885321636776001	0.5289334912990563	-0.5013190194892017	-1.127681333689444	0.6483030874389909	-0.2370964980288187	1.500868643670593	-1.16596222481529	-1.165962224815351	-0.07048635707127301	-0.08354865265026992	-0.5454111551125042	0.6619049520722524	4.474916513753604e-07	4.601145008037025e-07	-2.802486055453191e-06	-3.104089821065809e-07	5.45351711272143e-07	3.276720338945306e-07	4.333064789278076e-07
1.52	-0.3272775620390112	-0.0276778244733035	0.7732290131046171	1.136740464174138	-0.3045729497710736	0.002384200898229864	-0.3259173274488414	0.7863264970263197	0.7863264970263197	-0.1733980618861802	0.164588480876454	0.1571166364696524	-0.01999859687626206	0.4347312271094328	0.1666489457049183	0.5044580728337965	-2.138837319915548	-0.003434930060951746	-0.7068878161691351	0.6049946877085675	-2.14663589227793	-2.146635892277931	0.005185718020337422	-0.04956492051668378	-0.5667283821775273	-0.09752136228036631	-0.1792238534110974	0.01803616982998133	-0.02560405011306593	-0.2516403623128346	0.1010642107068474	0.03862699798379394	0.1801182311455489	-5.15460870472861	-18.67843727784814	5.779724070871847	-2.545100054711809	-596.7475211511091	-60.10028150784047	-22.30627679891673	0.4407502996932369	0.5162205882198154	-0.5648165082046982	-0.9248107373669232	0.7026197383193784	-0.2463372012667041	1.466080823656675	-0.9610305731230624	-0.9610305731229404	0.04467095002493184	-0.0702525988976716	-0.4691252165717228	0.7239915248458174	4.980940981680607e-07	5.334108957038731e-07	-3.026785425878349e-06	-3.339546586694091e-07	6.006235855854375e-07	4.316705901596145e-07	4.712167491745939e-07
1.53	-0.3229083104196315	-0.02598571268886033	0.7782444055712698	1.115307777544564	-0.304573560055251	-0.00469345880293761	-0.3197954535653595	0.7648142295596897	0.7648142295596898	-0.1733486657814408	0.1640888589801704	0.1514262451644891	-0.02093939929072094	0.4390570262726438	0.1717484976091277	0.4985209555149852	-2.147394397272554	0.003334029914797315	-0.7085771149956165	0.6192933833547409	-2.155498282140444	-2.155498282140444	0.004716759374566244	-0.05034235738342997	-0.5712435508167227	-0.09061890825174687	-0.1731572374461619	0.01752741127796612	-0.02538267804836356	-0.248679136216855	0.1024465897519539	0.03827039353767608	0.1750033537292087	-4.505338087229715	-18.7220232565217	5.883506997392272	-2.670049330356799	-592.6672218959118	-60.25398209541151	-23.5936210662478	0.4192361538433738	0.5030052341967236	-0.6229356499449599	-0.7752449355382238	0.667680376798193	-0.1196780196495847	1.398758090134956	-0.8010555279356684	-0.8010555279356814	-0.08925894060862785	-0.07823239717891332	-0.4267803105145147	0.6767266195913997	5.691225934441574e-07	5.693569679319105e-07	-3.369754597339152e-06	-3.776911801969727e-07	6.765550370994824e-07	5.395607957340936e-07	5.230872674048022e-07
1.54	-0.318497652522778	-0.02424336883683999	0.7831974716034894	1.093798702401286	-0.3045057514897519	-0.01178590185163204	-0.3135331938944084	0.7432228957274104	0.7432228957274105	-0.1733032751969051	0.1635821140818963	0.1456938886483496	-0.02181050630934934	0.4430124826041884	0.1766953592203512	0.4919927859471499	-2.154115022656394	0.01024883987436734	-0.7098444856745273	0.6330718452024048	-2.162449165407765	-2.162449165407765	0.004384613979575662	-0.05098952091480872	-0.5751214243727613	-0.08358228311427171	-0.1670906214812267	0.01701865272595092	-0.02516130598366121	-0.2457179101208755	0.1038289687970603	0.03791378909155826	0.1698884763128685	-3.858830738806895	-18.76897092779652	5.992220903924435	-2.827464550487301	-588.6636438397846	-60.51422648101492	-24.87179136187985	0.3666817333599572	0.4856825296226195	-0.6830269580094764	-0.5575203427337632	0.7317897350835721	-0.1619515717526273	1.36203406395469	-0.5787292540846086	-0.5787292540846093	0.07203360018105137	-0.0441979318241545	-0.3416661999403707	0.7508257466169611	6.134477046677177e-07	6.751639421842789e-07	-3.549993206448939e-06	-3.927923626069443e-07	7.303683458466254e-07	6.579984980266591e-07	5.569952487875021e-07
